<?xml version="1.0" encoding="utf-8"?><svg xmlns="http://www.w3.org/2000/svg" xmlns:xlink="http://www.w3.org/1999/xlink"><symbol id="Faynblat_icon" viewBox="0 0 153.2 26"><style>.ast0{fill-rule:evenodd;clip-rule:evenodd;fill:#a86280}.ast1{fill:#010202}</style><path class="ast0" d="M25 .1L12.5 26h7.1L32.2.1zM14.2 15l-2-4h4l2-4h-8l-1-3h10l2-4H0l10.6 22.3z"/><path class="ast1" d="M52.2 19h3v-4h6v-3h-6v-2h7V7l-10 .1V19zm16-12l-5 12h3l1-2h5l1 2h3l-5-12h-3zm0 7l1-3h1l1 3h-3zm66-7l-5 12h3l1-2h5l1 2h3l-5-12h-3zm0 7l1-3h1l1 3h-3zm-51.5-2l-3.5-5h-3l5 7v5h3v-5l5-7h-3l-3.5 5zm16.5 1l-5-6h-3v12h3v-7l5.3 7h2.7V7h-3v6zm13.6-.3c1.2-.5 1.8-1.4 1.8-2.7 0-.8-.3-1.4-.8-1.9-.7-.7-1.8-1.1-3.2-1.1h-5.5v12h5.5c1.4 0 2.5-.3 3.3-.9.8-.6 1.2-1.4 1.2-2.4 0-.8-.2-1.4-.6-1.9-.3-.4-.9-.8-1.7-1.1zm-5-3h2.1c.5 0 .9.1 1.1.3.3.2.4.4.4.8 0 .7-.5 1.1-1.6 1.1h-2.1V9.7zm3.7 6.4c-.3.2-.7.3-1.2.3h-2.5v-2.2h2.5c.5 0 .9.1 1.2.3.3.2.4.5.4.8 0 .3-.1.6-.4.8zm9.7-9.1h-3v12h9v-3h-6V7zm21 0v3h4v9h3v-9h4V7h-11z"/></symbol><symbol id="play_icon" viewBox="0 0 62 78"><style>.bst0{fill:#fff}.bst1{fill:#a7627f}</style><path class="bst0" d="M62 62H0V0h62v62zM2 60h58V2H2v58z" id="bbase"/><path id="bvideo_play_icon" class="bst1" d="M29 28l6 4.5-6 4.5v-9z"/><path id="bline" class="bst0" d="M31 50h2v28h-2z"/></symbol><symbol id="scrolldown_icon" viewBox="0 0 28 41"><style>.cst0{fill:none;stroke:#000;stroke-width:2}.cst1{fill:#050505}</style><path id="cscrolldown_icon-2" class="cst0" d="M14 1C6.8 1 1 6.8 1 14v13c0 7.2 5.8 13 13 13s13-5.8 13-13V14c0-7.2-5.8-13-13-13z"/><circle class="cst1" cx="14" cy="16" r="2"/></symbol></svg>